<?xml version="1.0" encoding="UTF-8"?>
<svg width="21px" height="20px" viewBox="0 0 21 20" version="1.1" xmlns="http://www.w3.org/2000/svg" xmlns:xlink="http://www.w3.org/1999/xlink">
    <!-- Generator: Sketch 52.6 (67491) - http://www.bohemiancoding.com/sketch -->
    <title>bus-front-12 copy 2</title>
    <desc>Created with Sketch.</desc>
    <g id="Page-1" stroke="none" stroke-width="1" fill="none" fill-rule="evenodd">
        <g id="iPhone-8-Copy-29" transform="translate(-86.000000, -571.000000)" fill="#000000" fill-rule="nonzero">
            <g id="bus-front-12-copy-2" transform="translate(86.000000, 571.000000)">
                <path d="M19.6875,6.25 L19.6875,2.5 C19.6875,1.125 18.50625,0 17.0625,0 L3.9375,0 C2.49375,0 1.3125,1.125 1.3125,2.5 L1.3125,6.25 L0,6.25 L0,10 L1.3125,10 L1.3125,16.25 C1.3125,17 1.8375,17.5 2.625,17.5 L2.625,18.75 C2.625,19.5 3.15,20 3.9375,20 L6.5625,20 C7.35,20 7.875,19.5 7.875,18.75 L7.875,17.5 L13.125,17.5 L13.125,18.75 C13.125,19.5 13.65,20 14.4375,20 L17.0625,20 C17.85,20 18.375,19.5 18.375,18.75 L18.375,17.5 C19.1625,17.5 19.6875,17 19.6875,16.25 L19.6875,10 L21,10 L21,6.25 L19.6875,6.25 Z M5.25,15 C4.4625,15 3.9375,14.5 3.9375,13.75 C3.9375,13 4.4625,12.5 5.25,12.5 C6.0375,12.5 6.5625,13 6.5625,13.75 C6.5625,14.5 6.0375,15 5.25,15 Z M15.75,15 C14.9625,15 14.4375,14.5 14.4375,13.75 C14.4375,13 14.9625,12.5 15.75,12.5 C16.5375,12.5 17.0625,13 17.0625,13.75 C17.0625,14.5 16.5375,15 15.75,15 Z M17.0625,10 L3.9375,10 L3.9375,2.5 L17.0625,2.5 L17.0625,10 Z" id="Shape"></path>
            </g>
        </g>
    </g>
</svg>