<?xml version="1.0" encoding="UTF-8"?>
<svg width="32px" height="32px" viewBox="0 0 32 32" version="1.1" xmlns="http://www.w3.org/2000/svg" xmlns:xlink="http://www.w3.org/1999/xlink">
    <!-- Generator: Sketch 52.6 (67491) - http://www.bohemiancoding.com/sketch -->
    <title>bus-front-12 copy</title>
    <desc>Created with Sketch.</desc>
    <g id="Page-1" stroke="none" stroke-width="1" fill="none" fill-rule="evenodd">
        <g id="iPhone-8-Copy-27" transform="translate(-30.000000, -604.000000)" fill="#FFFFFF" fill-rule="nonzero">
            <g id="bus-front-12-copy" transform="translate(30.000000, 604.000000)">
                <path d="M30,10 L30,4 C30,1.8 28.2,0 26,0 L6,0 C3.8,0 2,1.8 2,4 L2,10 L0,10 L0,16 L2,16 L2,26 C2,27.2 2.8,28 4,28 L4,30 C4,31.2 4.8,32 6,32 L10,32 C11.2,32 12,31.2 12,30 L12,28 L20,28 L20,30 C20,31.2 20.8,32 22,32 L26,32 C27.2,32 28,31.2 28,30 L28,28 C29.2,28 30,27.2 30,26 L30,16 L32,16 L32,10 L30,10 Z M8,24 C6.8,24 6,23.2 6,22 C6,20.8 6.8,20 8,20 C9.2,20 10,20.8 10,22 C10,23.2 9.2,24 8,24 Z M24,24 C22.8,24 22,23.2 22,22 C22,20.8 22.8,20 24,20 C25.2,20 26,20.8 26,22 C26,23.2 25.2,24 24,24 Z M26,16 L6,16 L6,4 L26,4 L26,16 Z" id="Shape"></path>
            </g>
        </g>
    </g>
</svg>