<?xml version="1.0" encoding="UTF-8"?>
<svg width="24px" height="21px" viewBox="0 0 24 21" version="1.1" xmlns="http://www.w3.org/2000/svg" xmlns:xlink="http://www.w3.org/1999/xlink">
    <!-- Generator: Sketch 52.6 (67491) - http://www.bohemiancoding.com/sketch -->
    <title>camera-19</title>
    <desc>Created with Sketch.</desc>
    <g id="Page-1" stroke="none" stroke-width="1" fill="none" fill-rule="evenodd">
        <g id="iPhone-8-Copy-30" transform="translate(-25.000000, -622.000000)" fill="#000000" fill-rule="nonzero">
            <g id="camera-19" transform="translate(25.000000, 622.000000)">
                <path d="M22.5,4.5 L18.75,4.5 L16.2,0.6 C15.9,0.3 15.45,0 15,0 L9,0 C8.55,0 8.1,0.3 7.8,0.6 L5.25,4.5 L1.5,4.5 C0.6,4.5 0,5.1 0,6 L0,19.5 C0,20.4 0.6,21 1.5,21 L22.5,21 C23.4,21 24,20.4 24,19.5 L24,6 C24,5.1 23.4,4.5 22.5,4.5 Z M12,16.5 C9.45,16.5 7.5,14.55 7.5,12 C7.5,9.45 9.45,7.5 12,7.5 C14.55,7.5 16.5,9.45 16.5,12 C16.5,14.55 14.55,16.5 12,16.5 Z" id="Shape"></path>
            </g>
        </g>
    </g>
</svg>