<?xml version="1.0" encoding="UTF-8"?>
<svg width="44px" height="36px" viewBox="0 0 44 36" version="1.1" xmlns="http://www.w3.org/2000/svg" xmlns:xlink="http://www.w3.org/1999/xlink">
    <!-- Generator: Sketch 52.6 (67491) - http://www.bohemiancoding.com/sketch -->
    <title>Group 7</title>
    <desc>Created with Sketch.</desc>
    <g id="Page-1" stroke="none" stroke-width="1" fill="none" fill-rule="evenodd">
        <g id="iPhone-8-Copy-28" transform="translate(-85.000000, -376.000000)" fill="#231F20">
            <g id="Group-7" transform="translate(85.000000, 376.000000)">
                <path d="M30.7647639,20.2986077 C32.3697918,20.3184146 33.9606023,20.2171167 35.4741778,19.6410202 C35.8386425,19.5021836 36.3554638,19.3874925 36.317999,18.8740234 C36.2862981,18.4426113 35.8244251,18.3060384 35.4757148,18.2011564 C32.33982,17.2575956 29.1939345,17.2538229 26.0603452,18.2079473 C25.6910773,18.3203747 25.172719,18.4731705 25.2092231,18.9673986 C25.2393871,19.3756084 25.7081766,19.5116154 26.0566948,19.6432839 C27.5721916,20.2165508 29.1620415,20.3161509 30.7647639,20.2986077 Z M42.850697,11.9287978 C42.8468545,10.2918086 42.0272413,9.756269 40.9086786,10.469693 C38.4944123,12.0095343 37.1779589,14.2914723 36.7817933,17.0587726 C36.639043,18.0559061 37.7349347,18.8046051 38.5524346,18.2983043 C41.0589218,16.7456357 42.2956425,14.3723975 42.850697,11.9287978 Z M25.230165,32.0238871 C25.0374617,33.698415 25.1596544,33.9110086 26.7327893,34.3265752 C27.4084995,34.5052142 28.1080334,34.6255644 28.8046855,34.6923417 C30.9837885,34.9013512 33.1538615,34.8623034 35.2566902,34.1794386 C35.7790832,34.0100428 36.4820754,33.8623403 36.4972534,33.1679687 C36.5433639,31.084665 36.5137763,28.9998523 36.5137763,26.7877099 C35.1854111,27.5588567 33.9396605,28.1047712 32.6433804,28.542597 C32.2197407,28.6855836 31.7911056,28.8095179 31.6009,28.2847306 C31.3932109,27.7116524 31.917333,27.5980931 32.2906355,27.4777429 C33.4480078,27.1040536 34.567339,26.6607574 35.5980996,26.0118472 C36.2359609,25.6104283 36.6211752,25.1290275 36.5351024,24.3150601 C36.4594044,23.5999384 36.519348,22.8710463 36.519348,22.1481905 C36.5191559,20.6430583 36.5289543,20.6877652 35.0524593,20.9975067 C32.0070562,21.6364191 28.9597319,21.6792397 25.9546754,20.7686904 C25.439199,20.6124992 25.3173906,20.6581493 25.2597525,21.2042525 C25.1558119,22.1878042 25.5439082,22.7467347 26.4983945,23.0008283 C27.4578761,23.2566197 28.4227373,23.4345041 29.4192994,23.4884542 C29.9710877,23.5182588 30.8854195,23.2581288 30.8477627,24.1277439 C30.8129877,24.9315248 29.9539884,24.5883947 29.4327482,24.5904697 C28.1766227,24.594997 26.9589226,24.345242 25.77081,23.9470299 C25.5669634,23.8787435 25.2178689,23.615218 25.2101838,24.0732279 C25.2011538,24.5957515 24.9951938,25.1329888 25.5756091,25.6175965 C26.7333656,26.5839822 26.7189561,28.2253101 25.6559181,29.2946915 C24.9035493,30.0516905 25.0107561,30.6098665 26.0286443,31.0527854 C27.2480735,31.5834205 28.5574182,31.6900002 29.8677235,31.7543253 C30.2992404,31.7756412 30.7951199,31.7530048 30.8051105,32.3008058 C30.8166381,32.9329273 30.2686923,32.88275 29.818539,32.8753931 C28.2434829,32.8493613 26.7178034,32.5501835 25.230165,32.0238871 Z M44,12.1364868 C43.4839472,13.9268376 42.7899849,15.6389042 41.6034094,17.1130999 C40.6429671,18.3064156 39.6127828,19.4338971 37.9543436,19.6662975 C37.3132163,19.7562772 37.5591387,20.2305099 37.5577938,20.5427036 C37.5403102,24.5310491 37.5468425,28.5192061 37.5458819,32.5075516 C37.5453055,34.3320457 37.2135024,34.8617375 35.4363288,35.3570974 C32.3574956,36.2153944 29.2435033,36.207283 26.1623646,35.3748293 C24.3511845,34.8853171 24.0228397,34.363548 24.0226476,32.5628222 C24.0224554,31.8716573 24.0147704,31.1803038 24.0245688,30.4889504 C24.0357122,29.7079945 23.8284073,28.9162863 24.8574388,28.4299809 C25.4757031,28.1381599 25.3469781,26.7969531 24.6989342,26.4823071 C24.077788,26.1808656 24.0086223,25.7686945 24.0147704,25.1971253 C24.0353279,23.2809538 24.0774037,21.3621414 24.0026664,19.4482335 C23.9554032,18.2362428 24.5385082,17.5818621 25.5894422,17.1664841 C27.2863068,16.4962579 29.0767371,16.3987328 30.8662068,16.3972237 C32.205139,16.3960919 33.558865,16.4451374 34.8555293,16.8354267 C35.4728329,17.0210452 35.6190415,16.7499743 35.719716,16.2353734 C36.1487353,14.0426605 37.2888161,12.2134505 38.8046972,10.5913636 C39.0838575,10.2925631 39.4054779,10.0237558 39.738818,9.78324404 C41.5096514,8.50560774 42.9383069,8.7938446 44,10.6273932 L44,12.1364868 Z" id="Fill-1"></path>
                <path d="M5.92252892,0.997253442 C5.58656638,1.37938553 4.85177658,0.683756731 4.74339555,1.41518722 C4.57177671,2.57048753 5.08700632,3.17744684 6.01337498,3.17559183 C6.9934678,3.17336582 7.27589272,2.89641281 7.23765156,1.54411043 C7.21004331,0.567262096 6.33907769,1.39441111 5.92252892,0.997253442 Z M5.97047027,5.58562098 C6.62112953,5.58562098 7.27178879,5.58543548 7.92244805,5.58562098 C8.34104879,5.58599198 8.56154169,5.35411572 8.56676487,4.96233758 C8.57161497,4.59708609 8.32295419,4.38450193 7.97412024,4.3798644 C6.6422088,4.36205631 5.31011081,4.35945929 3.97838591,4.37411387 C3.59336277,4.37838039 3.33220366,4.58632703 3.34022498,5.01093885 C3.34861938,5.44964874 3.62917887,5.58599198 4.01849249,5.58654849 C4.66915175,5.58747599 5.31981101,5.58673399 5.97047027,5.58562098 Z M1.13025931,31.7711294 L1.1041434,31.7711294 C1.1041434,32.2955407 1.15712139,32.8264446 1.09164507,33.3425085 C0.993710402,34.1149347 1.39589543,34.4108088 2.06222423,34.5074548 C2.79682749,34.6143034 3.53199038,34.725975 4.27069757,34.7934974 C6.1027287,34.9613758 7.92188842,34.8337511 9.73153449,34.5163589 C10.5004615,34.3816851 10.9306279,34.0687449 10.8541456,33.1714765 C10.7651649,32.1304448 10.8011676,31.0747586 10.8459377,30.0279764 C10.8703747,29.4531087 10.6843921,29.3705608 10.1704683,29.5041215 C7.88607232,30.0969827 5.56511402,29.9988527 3.24154414,29.8229978 C2.53231063,29.7692025 1.60911318,29.1357165 1.20748778,29.6172771 C0.84223812,30.0550595 1.13025931,31.0319079 1.13025931,31.7711294 Z M10.8332528,24.3663 C10.8332528,23.3172917 10.8071369,22.2675415 10.8438857,21.2202028 C10.8636592,20.6553522 10.7709477,20.4761582 10.1339061,20.6260431 C7.37849094,21.2749256 4.60031767,21.2671346 1.84452946,20.6429237 C1.14854044,20.4852478 1.08698151,20.6904119 1.09425666,21.2730706 C1.11981294,23.3085732 1.13119202,25.3455598 1.08866039,27.3806914 C1.07485627,28.0412605 1.34049239,28.3107935 1.93686786,28.4673564 C3.30347616,28.8263008 4.69993121,28.8476334 6.09079,28.8392859 C7.41878406,28.8314948 8.75349363,28.8101622 10.0572372,28.4532583 C10.6265641,28.2974374 10.8737325,28.031429 10.8459377,27.4196466 C10.7996752,26.4036576 10.8332528,25.3843295 10.8332528,24.3663 Z M5.86861822,19.9398748 C7.202022,19.8912736 8.538597,19.8990646 9.85204076,19.5942864 C10.5470971,19.4329006 10.9323068,19.1188473 10.8487358,18.3232335 C10.7750517,17.6199992 10.8104947,16.9021102 10.8381029,16.1921979 C10.895931,14.7024392 10.3497354,13.5065142 9.22768396,12.5131563 C8.03082908,11.4539455 7.45012315,10.0975621 7.46056951,8.48630031 C7.47232167,6.68675499 7.45590596,6.67692344 5.68636647,6.69046501 C4.28300935,6.70140957 4.43951827,6.49661645 4.48820579,7.93573331 C4.54771276,9.70244495 4.08751311,11.2497089 2.76865962,12.457135 C1.56602193,13.5584545 0.985502544,14.8658656 1.09630862,16.4941935 C1.14257109,17.1710867 1.14387689,17.856884 1.09257778,18.5328496 C1.04519605,19.1566895 1.32780752,19.4034059 1.89191119,19.5555167 C3.19975869,19.9083396 4.53689331,19.873651 5.86861822,19.9398748 Z M8.39439986,0 C8.85721111,0.794871838 8.4007423,1.57026607 8.29963642,2.33879676 C8.23080234,2.86265162 8.20561914,3.12643406 8.79061554,3.38761949 C10.0867109,3.96656815 10.243966,5.42961463 9.14280725,6.31668047 C8.81523911,6.58064841 8.69902331,6.82884877 8.67272085,7.23101496 C8.54605869,9.17543657 8.94358016,10.8614553 10.5276967,12.2239602 C11.690974,13.2245527 12.0041783,14.66571 11.9985821,16.1823663 C11.9812337,20.8490153 11.9926127,25.5156642 11.9926127,30.1823132 C11.9927993,31.3875133 11.9702277,32.5934554 11.9993282,33.7979134 C12.0176094,34.5560561 11.6622465,35.006638 10.9962907,35.2963906 C10.1880033,35.6484715 9.33345339,35.7901943 8.4678975,35.8686612 C6.32695245,36.0625098 4.19197675,36.0862539 2.07211097,35.6304779 C1.26046577,35.456107 0.555522729,35.1249877 0,34.5031883 L0,14.65458 C0.475869201,13.7782732 0.706995011,12.742992 1.52498264,12.0859475 C3.04996528,10.8614553 3.46576789,9.24240244 3.3553349,7.39314285 C3.32865936,6.94701291 3.27456212,6.62387015 2.86472886,6.30759092 C1.76263743,5.45725428 1.90776728,3.91926539 3.16841959,3.38094145 C3.82262316,3.10157693 3.75360253,2.75561754 3.67842602,2.24048123 C3.57041808,1.50051769 3.19248354,0.768901696 3.54430216,0 L8.39439986,0 Z" id="Fill-3"></path>
                <path d="M20.5257734,19.093725 C20.0053331,20.9337647 19.3540331,22.4402299 18.4870441,23.8377919 C18.2962218,24.1453928 18.1226829,24.5214525 17.6803704,24.4108794 C17.2066656,24.2923288 17.2904369,23.8633943 17.2888497,23.5038464 C17.2832062,22.2990452 17.2955514,21.093873 17.2795026,19.8890718 C17.275799,19.6204312 17.4385799,19.2401044 16.9680496,19.1623693 C16.5514857,19.0935395 16.4019319,19.3484512 16.2839466,19.6987229 C15.8633264,20.9484212 15.4296555,22.2012734 15.2241953,23.508299 C15.0222624,24.7947312 15.0571818,26.0935937 15.5042561,27.343663 C16.0146439,28.770909 16.9357756,29.4601354 18.3718806,29.4870366 C19.9344361,29.516164 20.9474518,28.8597756 21.4812955,27.4282626 C21.7282005,26.7659373 21.8483021,26.0687333 21.8913341,25.3537189 C22.019901,23.2194361 21.2379178,21.3100099 20.5257734,19.093725 M18.3284958,21.4267053 C18.9611016,20.5996337 19.2228208,19.6872203 19.3864835,18.7477203 C19.4619659,18.3135912 19.6480264,18.0425388 20.0589467,18.0495887 C20.529477,18.0575663 21.16367,17.7892967 21.3957606,18.4241643 C22.393962,21.156024 23.4849291,23.8789785 22.7701393,26.9280864 C22.3415829,28.7555104 21.3908225,30.0395308 19.5831256,30.4699495 C19.2275825,30.554549 19.0251205,30.6571445 19.0402875,31.1116814 C19.0752069,32.1604558 19.075736,33.2120131 19.041522,34.260602 C19.0240623,34.7912043 19.2579166,34.8685683 19.6751859,34.8539118 C20.3494128,34.8301646 21.0252268,34.8509434 21.7003355,34.8470474 C22.1004978,34.8446355 22.5228816,34.862817 22.5521575,35.4039943 C22.583197,35.9780095 22.1424717,35.9960054 21.750951,35.9967475 C19.5787166,36.0013857 17.4064823,36.0008291 15.2344243,35.996562 C14.8697104,35.9960054 14.4817169,35.9644661 14.477837,35.4479638 C14.473428,34.8848945 14.8750012,34.8470474 15.2815126,34.847975 C15.9858971,34.8494592 16.6915161,34.8229291 17.3946661,34.8555815 C17.8683709,34.877659 18.0163375,34.6793325 17.9865325,34.2069852 C17.9572566,33.7459549 17.9502022,33.2784312 17.9863561,32.818514 C18.0904089,31.4921938 18.1029305,30.4102104 16.4119844,30.0263586 C15.2238426,29.7566048 14.6520813,28.4714712 14.3203469,27.2403255 C13.8605746,25.5346061 13.9002558,23.8274024 14.4101145,22.1367106 C14.7287982,21.0808862 15.1030356,20.0412026 15.3758655,18.9727625 C15.6070743,18.0661005 16.1871246,18.0000535 16.9191977,18.0184205 C18.327614,18.0536703 18.3283195,18.0278823 18.3284958,19.5109713 C18.3284958,20.1495493 18.3284958,20.7881273 18.3284958,21.4267053" id="Fill-5"></path>
            </g>
        </g>
    </g>
</svg>