<?xml version="1.0" encoding="UTF-8"?>
<svg width="24px" height="26px" viewBox="0 0 24 26" version="1.1" xmlns="http://www.w3.org/2000/svg" xmlns:xlink="http://www.w3.org/1999/xlink">
    <!-- Generator: Sketch 52.6 (67491) - http://www.bohemiancoding.com/sketch -->
    <title>barcode-qr copy 2</title>
    <desc>Created with Sketch.</desc>
    <g id="Page-1" stroke="none" stroke-width="1" fill="none" fill-rule="evenodd">
        <g id="iPhone-8-Copy-26" transform="translate(-62.000000, -255.000000)" fill="#111111">
            <g id="barcode-qr-copy-2" transform="translate(62.000000, 255.000000)">
                <path d="M8,0.5 L0,0.5 L0,8.5 L8,8.5 L8,0.5 Z M6.85714286,7.35714286 L1.14285714,7.35714286 L1.14285714,1.64285714 L6.85714286,1.64285714 L6.85714286,7.35714286 Z" id="Shape" fill-rule="nonzero"></path>
                <polygon id="Path" points="16.0588235 22.5 15 22.5 15 24.5 24 24.5 24 23.5 16.0588235 23.5"></polygon>
                <rect id="Rectangle" x="2" y="3.5" width="4" height="4"></rect>
                <path d="M0,25.5 L8,25.5 L8,17.5 L0,17.5 L0,25.5 Z M1.14285714,18.6428571 L6.85714286,18.6428571 L6.85714286,24.3571429 L1.14285714,24.3571429 L1.14285714,18.6428571 Z" id="Shape" fill-rule="nonzero"></path>
                <rect id="Rectangle" x="2" y="18.5" width="4" height="4"></rect>
                <path d="M16,0.5 L16,8.5 L24,8.5 L24,0.5 L16,0.5 Z M22.8571429,7.35714286 L17.1428571,7.35714286 L17.1428571,1.64285714 L22.8571429,1.64285714 L22.8571429,7.35714286 Z" id="Shape" fill-rule="nonzero"></path>
                <rect id="Rectangle" x="18" y="3.5" width="4" height="4"></rect>
                <rect id="Rectangle" x="22" y="9.5" width="2" height="2"></rect>
                <rect id="Rectangle" x="0" y="14.5" width="2" height="2"></rect>
                <polygon id="Path" points="12.2666667 9.38888889 8 9.38888889 8 10.5 13.3333333 10.5 13.3333333 8.27777778 13.3333333 7.16666667 14.4 7.16666667 14.4 4.94444444 13.3333333 4.94444444 12.2666667 4.94444444 11.2 4.94444444 11.2 2.72222222 12.2666667 2.72222222 12.2666667 3.83333333 16 3.83333333 16 0.5 14.9333333 0.5 14.9333333 2.72222222 13.3333333 2.72222222 13.3333333 0.5 12.8 0.5 10.6666667 0.5 10.1333333 0.5 10.1333333 6.05555556 12.2666667 6.05555556 12.2666667 7.16666667 10.1333333 7.16666667 10.1333333 8.27777778 12.2666667 8.27777778"></polygon>
                <polygon id="Path" points="1.66666667 13.5 3.88888889 13.5 5 13.5 5.55555556 13.5 5.55555556 14.5 3.33333333 14.5 3.33333333 15.5 5.55555556 15.5 5.55555556 16.5 10 16.5 10 15.5 6.66666667 15.5 6.66666667 14.5 6.66666667 12.5 5 12.5 5 11 3.88888889 11 3.88888889 12.5 2.77777778 12.5 2.77777778 10.5 0 10.5 0 11.5 1.66666667 11.5"></polygon>
                <polygon id="Path" points="12.3333333 23.0384615 12.3333333 19.9615385 10.1111111 19.9615385 10.1111111 17.5 9 17.5 9 21.1923077 11.2222222 21.1923077 11.2222222 23.0384615 9 23.0384615 9 24.2692308 11.2222222 24.2692308 11.2222222 25.5 14 25.5 14 24.2692308 12.3333333 24.2692308"></polygon>
                <polygon id="Path" points="17.2727273 12.3571429 15.0909091 12.3571429 15.0909091 9.5 14 9.5 14 13.5 19.4545455 13.5 19.4545455 12.3571429 18.3636364 12.3571429 18.3636364 11.2142857 20 11.2142857 20 10.0714286 18.3636364 10.0714286 17.2727273 10.0714286 16.1818182 10.0714286 16.1818182 11.2142857 17.2727273 11.2142857"></polygon>
                <polygon id="Path" points="16.1818182 21.4 17.8181818 21.4 17.8181818 22.5 20 22.5 20 21.4 20 20.3 20 18.65 17.8181818 18.65 17.8181818 20.3 16.1818182 20.3 16.1818182 18.65 15.0909091 18.65 15.0909091 20.3 14 20.3 14 15.9 12.9090909 15.9 12.9090909 14.8 11.8181818 14.8 11.8181818 11.5 8 11.5 8 13.7 9.09090909 13.7 9.09090909 12.6 10.7272727 12.6 10.7272727 14.8 10.7272727 17 12.9090909 17 12.9090909 20.3 12.9090909 21.4 14 21.4 15.0909091 21.4"></polygon>
                <polygon id="Path" points="22.875 15.0882353 21.1875 15.0882353 20.0625 15.0882353 17.25 15.0882353 17.25 17.2058824 16.125 17.2058824 16.125 15.0882353 15 15.0882353 15 18.2647059 18.375 18.2647059 18.375 16.1470588 20.0625 16.1470588 20.0625 17.7352941 21.1875 17.7352941 21.1875 16.1470588 22.875 16.1470588 22.875 19.3235294 21.1875 19.3235294 21.1875 22.5 24 22.5 24 21.4411765 22.3125 21.4411765 22.3125 20.3823529 24 20.3823529 24 16.1470588 24 15.0882353 24 13.5 22.875 13.5"></polygon>
            </g>
        </g>
    </g>
</svg>